<svg viewBox="0 0 36 36" fill="none" xmlns="http://www.w3.org/2000/svg">
<path fill-rule="evenodd" clip-rule="evenodd" d="M28.3862 8.42582C28.3135 8.25021 28.2061 8.0856 28.0638 7.94253C28.0617 7.9404 28.0596 7.93828 28.0575 7.93616C27.7863 7.66658 27.4126 7.5 27 7.5H12.375C11.5466 7.5 10.875 8.17157 10.875 9C10.875 9.82843 11.5466 10.5 12.375 10.5H23.3787L7.93934 25.9393C7.35355 26.5251 7.35355 27.4749 7.93934 28.0607C8.52513 28.6464 9.47487 28.6464 10.0607 28.0607L25.5 12.6213V23.625C25.5 24.4534 26.1716 25.125 27 25.125C27.8284 25.125 28.5 24.4534 28.5 23.625V9C28.5 8.79662 28.4595 8.60268 28.3862 8.42582Z" fill="currentColor" fill-opacity="0.85"/>
</svg>
