<svg width="23" height="23" viewBox="0 0 23 23" fill="none"
    xmlns="http://www.w3.org/2000/svg">
    <path d="M19.1703 6.19579H16.2514L15.556 4.24696C15.5079 4.1136 15.4199 3.99833 15.3039 3.91689C15.1878 3.83546 15.0495 3.79182 14.9078 3.79194H8.32295C8.0332 3.79194 7.7735 3.97438 7.67692 4.24696L6.97937 6.19579H4.06042C3.11176 6.19579 2.34338 6.96416 2.34338 7.91282V17.6999C2.34338 18.6486 3.11176 19.4169 4.06042 19.4169H19.1703C20.119 19.4169 20.8873 18.6486 20.8873 17.6999V7.91282C20.8873 6.96416 20.119 6.19579 19.1703 6.19579ZM11.6154 15.9829C9.71804 15.9829 8.1813 14.4461 8.1813 12.5488C8.1813 10.6515 9.71804 9.11475 11.6154 9.11475C13.5127 9.11475 15.0494 10.6515 15.0494 12.5488C15.0494 14.4461 13.5127 15.9829 11.6154 15.9829ZM9.55492 12.5488C9.55492 13.0953 9.772 13.6194 10.1584 14.0058C10.5448 14.3922 11.0689 14.6093 11.6154 14.6093C12.1618 14.6093 12.6859 14.3922 13.0723 14.0058C13.4587 13.6194 13.6758 13.0953 13.6758 12.5488C13.6758 12.0023 13.4587 11.4783 13.0723 11.0919C12.6859 10.7055 12.1618 10.4884 11.6154 10.4884C11.0689 10.4884 10.5448 10.7055 10.1584 11.0919C9.772 11.4783 9.55492 12.0023 9.55492 12.5488Z" fill="black" fill-opacity="0.45"/>
</svg>
