<svg width="19" height="17" viewBox="0 0 19 17" fill="none" xmlns="http://www.w3.org/2000/svg">
<path d="M17.1703 3.19579H14.2514L13.556 1.24696C13.5079 1.1136 13.4199 0.998334 13.3039 0.916895C13.1878 0.835455 13.0495 0.791818 12.9078 0.791943H6.32295C6.0332 0.791943 5.7735 0.974378 5.67692 1.24696L4.97937 3.19579H2.06042C1.11176 3.19579 0.343384 3.96416 0.343384 4.91282V14.6999C0.343384 15.6486 1.11176 16.4169 2.06042 16.4169H17.1703C18.119 16.4169 18.8873 15.6486 18.8873 14.6999V4.91282C18.8873 3.96416 18.119 3.19579 17.1703 3.19579ZM9.61536 12.9829C7.71804 12.9829 6.1813 11.4461 6.1813 9.54881C6.1813 7.65149 7.71804 6.11475 9.61536 6.11475C11.5127 6.11475 13.0494 7.65149 13.0494 9.54881C13.0494 11.4461 11.5127 12.9829 9.61536 12.9829ZM7.55492 9.54881C7.55492 10.0953 7.772 10.6194 8.15841 11.0058C8.54482 11.3922 9.0689 11.6093 9.61536 11.6093C10.1618 11.6093 10.6859 11.3922 11.0723 11.0058C11.4587 10.6194 11.6758 10.0953 11.6758 9.54881C11.6758 9.00235 11.4587 8.47827 11.0723 8.09186C10.6859 7.70545 10.1618 7.48837 9.61536 7.48837C9.0689 7.48837 8.54482 7.70545 8.15841 8.09186C7.772 8.47827 7.55492 9.00235 7.55492 9.54881Z" fill="black" fill-opacity="0.45"/>
</svg>
