<svg width="21" height="21" viewBox="0 0 21 21" fill="none" xmlns="http://www.w3.org/2000/svg">
<path fill-rule="evenodd" clip-rule="evenodd" d="M1 4C1 2.34315 2.34315 1 4 1H16C17.6569 1 19 2.34315 19 4V9.76923H17V4C17 3.44772 16.5523 3 16 3H4C3.44772 3 3 3.44772 3 4V16C3 16.5523 3.44772 17 4 17H10.2308V19H4C2.34315 19 1 17.6569 1 16V4Z" fill="currentColor"/>
<path fill-rule="evenodd" clip-rule="evenodd" d="M17 14.8462C15.8105 14.8462 14.8462 15.8105 14.8462 17C14.8462 18.1895 15.8105 19.1538 17 19.1538C18.1895 19.1538 19.1538 18.1895 19.1538 17C19.1538 15.8105 18.1895 14.8462 17 14.8462ZM13 17C13 14.7909 14.7909 13 17 13C19.2091 13 21 14.7909 21 17C21 19.2091 19.2091 21 17 21C14.7909 21 13 19.2091 13 17Z" fill="currentColor"/>
</svg>
