<svg viewBox="0 0 24 24" fill="none" xmlns="http://www.w3.org/2000/svg">
<path d="M17.611 17.9212L20.1376 17.9212C20.282 17.9212 20.4001 17.7973 20.4001 17.6458L20.4001 15.9933C20.4001 15.8419 20.282 15.7179 20.1376 15.7179L17.611 15.7179C17.7193 16.0656 17.7751 16.434 17.7751 16.8196C17.7751 17.2051 17.716 17.5735 17.611 17.9212ZM11.1142 15.7179L3.8626 15.7179C3.71822 15.7179 3.6001 15.8419 3.6001 15.9933L3.6001 17.6458C3.6001 17.7973 3.71822 17.9212 3.8626 17.9212L11.1142 17.9212C11.0059 17.5735 10.9501 17.2051 10.9501 16.8196C10.9501 16.434 11.0092 16.0656 11.1142 15.7179ZM17.611 17.9212C17.7193 17.5735 17.7751 17.2051 17.7751 16.8196C17.7751 16.434 17.716 16.0656 17.611 15.7179C17.1681 14.2789 15.8818 13.2392 14.3626 13.2392C12.8434 13.2392 11.5571 14.2789 11.1142 15.7179C11.0059 16.0656 10.9501 16.434 10.9501 16.8196C10.9501 17.2051 11.0092 17.5735 11.1142 17.9212C11.5571 19.3602 12.8434 20.3999 14.3626 20.3999C15.8818 20.3999 17.1681 19.3602 17.611 17.9212ZM13.8146 17.9178C13.7949 17.9074 13.7753 17.8937 13.7556 17.8833L13.7523 17.8833L13.6932 17.842C13.6867 17.8386 13.6834 17.8351 13.6768 17.8317C13.6604 17.8214 13.6473 17.8076 13.6309 17.7973C13.6276 17.7938 13.621 17.7904 13.6178 17.787C13.5981 17.7697 13.5817 17.756 13.5653 17.7388L13.5554 17.7284L13.516 17.6871L13.5029 17.6733C13.4865 17.6561 13.4734 17.6389 13.457 17.6183C13.4406 17.5976 13.4274 17.5804 13.4143 17.5597C13.411 17.5529 13.4078 17.5494 13.4045 17.5425C13.3946 17.5253 13.3815 17.5115 13.3717 17.4943C13.3684 17.4909 13.3651 17.484 13.3618 17.4806C13.3487 17.4599 13.3388 17.4392 13.3257 17.4151C13.3224 17.4117 13.3224 17.4048 13.3192 17.4014C13.3093 17.3842 13.3028 17.367 13.2929 17.3463L13.2831 17.3256C13.2732 17.3015 13.2634 17.2809 13.2568 17.2568C13.247 17.2327 13.2404 17.2086 13.2338 17.1845C13.2306 17.1776 13.2306 17.1707 13.2273 17.1638C13.2207 17.1432 13.2174 17.126 13.2142 17.1053C13.2142 17.0984 13.2109 17.095 13.2109 17.0881C13.2043 17.064 13.201 17.0365 13.1978 17.0124C13.1978 17.0055 13.1978 17.002 13.1945 16.9951C13.1912 16.9745 13.1912 16.9538 13.1879 16.9332L13.1879 16.9125C13.1879 16.885 13.1846 16.8609 13.1846 16.8333C13.1846 16.8058 13.1846 16.7817 13.1879 16.7542L13.1879 16.7335C13.1879 16.7129 13.1912 16.6922 13.1945 16.6715C13.1945 16.6647 13.1945 16.6612 13.1978 16.6543C13.201 16.6302 13.2043 16.6027 13.2109 16.5786C13.2109 16.5717 13.2142 16.5683 13.2142 16.5614C13.2174 16.5407 13.224 16.5201 13.2273 16.5029C13.2306 16.496 13.2306 16.4891 13.2338 16.4822C13.2404 16.4581 13.247 16.434 13.2568 16.4099C13.2634 16.3858 13.2732 16.3651 13.2831 16.3411L13.2929 16.3204C13.2995 16.3032 13.3093 16.2825 13.3192 16.2653C13.3224 16.2619 13.3224 16.255 13.3257 16.2515C13.3356 16.2309 13.3487 16.2068 13.3618 16.1861C13.3651 16.1827 13.3684 16.1758 13.3717 16.1724C13.3815 16.1551 13.3913 16.1379 13.4045 16.1242C13.4078 16.1173 13.411 16.1138 13.4143 16.107C13.4274 16.0863 13.4438 16.0656 13.457 16.0484C13.4701 16.0312 13.4865 16.0106 13.5029 15.9933L13.516 15.9796L13.5554 15.9383L13.5653 15.9279C13.5817 15.9107 13.6013 15.8935 13.6178 15.8797C13.621 15.8763 13.6276 15.8729 13.6309 15.8694C13.644 15.8556 13.6604 15.8453 13.6768 15.835C13.6834 15.8315 13.6867 15.8281 13.6932 15.8247L13.7523 15.7833C13.7523 15.7833 13.7556 15.7833 13.7556 15.7799C13.9392 15.6651 14.1489 15.6045 14.3626 15.6043C14.5595 15.6043 14.7465 15.656 14.9106 15.7455C14.9303 15.7558 14.9499 15.7696 14.9696 15.7799C14.9696 15.7799 14.9729 15.7799 14.9729 15.7833L15.032 15.8247C15.0385 15.8281 15.0418 15.8315 15.0484 15.835C15.0648 15.8453 15.0779 15.8591 15.0943 15.8694C15.0976 15.8729 15.1042 15.8763 15.1074 15.8797C15.1271 15.897 15.1435 15.9107 15.1599 15.9279L15.1698 15.9383L15.2092 15.9796L15.2223 15.9933C15.2387 16.0106 15.2518 16.0278 15.2682 16.0484C15.2846 16.0691 15.2978 16.0863 15.3109 16.107C15.3142 16.1138 15.3174 16.1173 15.3207 16.1242C15.3306 16.1414 15.3437 16.1551 15.3535 16.1724C15.3568 16.1758 15.3601 16.1827 15.3634 16.1861C15.3765 16.2068 15.3863 16.2274 15.3995 16.2515C15.4028 16.255 15.4028 16.2619 15.406 16.2653C15.4159 16.2825 15.4224 16.2997 15.4323 16.3204L15.4421 16.3411C15.452 16.3651 15.4618 16.3858 15.4684 16.4099C15.4782 16.434 15.4848 16.4581 15.4914 16.4822C15.4946 16.4891 15.4946 16.496 15.4979 16.5029C15.5045 16.5235 15.5078 16.5407 15.511 16.5614C15.511 16.5683 15.5143 16.5717 15.5143 16.5786C15.5209 16.6027 15.5242 16.6302 15.5274 16.6543C15.5274 16.6612 15.5274 16.6647 15.5307 16.6715C15.534 16.6922 15.534 16.7129 15.5373 16.7335L15.5373 16.7542C15.5373 16.7817 15.5406 16.8058 15.5406 16.8333C15.5406 16.8609 15.5406 16.885 15.5373 16.9125L15.5373 16.9332C15.5373 16.9538 15.534 16.9745 15.5307 16.9951C15.5307 17.002 15.5307 17.0055 15.5274 17.0124C15.5242 17.0365 15.5209 17.064 15.5143 17.0881C15.5143 17.095 15.511 17.0984 15.511 17.1053C15.5078 17.126 15.5012 17.1466 15.4979 17.1638C15.4946 17.1707 15.4946 17.1776 15.4914 17.1845C15.4848 17.2086 15.4782 17.2327 15.4684 17.2568C15.4618 17.2809 15.452 17.3015 15.4421 17.3256L15.4323 17.3463C15.4257 17.3635 15.4159 17.3842 15.406 17.4014C15.4028 17.4048 15.4028 17.4117 15.3995 17.4151C15.3896 17.4358 15.3765 17.4599 15.3634 17.4806C15.3601 17.484 15.3568 17.4909 15.3535 17.4943C15.3437 17.5115 15.3338 17.5288 15.3207 17.5425C15.3174 17.5494 15.3142 17.5529 15.3109 17.5597C15.2978 17.5804 15.2813 17.601 15.2682 17.6183C15.2551 17.6355 15.2387 17.6561 15.2223 17.6733L15.2092 17.6871L15.1698 17.7284L15.1599 17.7388C15.1435 17.756 15.1238 17.7732 15.1074 17.787C15.1042 17.7904 15.0976 17.7938 15.0943 17.7973C15.0812 17.811 15.0648 17.8214 15.0484 17.8317C15.0418 17.8351 15.0385 17.8386 15.032 17.842L14.9729 17.8833L14.9696 17.8833C14.9499 17.8971 14.9303 17.9074 14.9106 17.9178C14.7465 18.0073 14.5595 18.0589 14.3626 18.0589C14.1657 18.0589 13.9787 18.0073 13.8146 17.9178ZM12.886 8.28187L20.1376 8.28187C20.282 8.28187 20.4001 8.15794 20.4001 8.00646L20.4001 6.354C20.4001 6.20253 20.282 6.07859 20.1376 6.07859L12.886 6.07859C12.9943 6.4263 13.0501 6.79466 13.0501 7.18023C13.0501 7.5658 12.991 7.93417 12.886 8.28187ZM6.38916 6.07859L3.8626 6.07859C3.71822 6.07859 3.6001 6.20253 3.6001 6.354L3.6001 8.00646C3.6001 8.15794 3.71822 8.28187 3.8626 8.28187L6.38916 8.28187C6.28088 7.93417 6.2251 7.5658 6.2251 7.18023C6.2251 6.79466 6.28416 6.4263 6.38916 6.07859ZM12.886 8.28187C12.9943 7.93417 13.0501 7.5658 13.0501 7.18023C13.0501 6.79466 12.991 6.4263 12.886 6.07859C12.4431 4.63957 11.1568 3.5999 9.6376 3.5999C8.11838 3.5999 6.83213 4.63957 6.38916 6.07859C6.28088 6.4263 6.2251 6.79466 6.2251 7.18023C6.2251 7.5658 6.28416 7.93417 6.38916 8.28187C6.83213 9.72089 8.11838 10.7606 9.6376 10.7606C11.1568 10.7606 12.4431 9.72089 12.886 8.28187ZM9.08963 8.27843C9.06994 8.2681 9.05025 8.25433 9.03057 8.244L9.02728 8.244L8.96822 8.20269C8.96166 8.19925 8.95838 8.19581 8.95182 8.19236C8.93541 8.18204 8.92229 8.16826 8.90588 8.15794C8.9026 8.15449 8.89603 8.15105 8.89275 8.14761C8.87307 8.13039 8.85666 8.11662 8.84025 8.09941L8.83041 8.08908L8.79104 8.04777L8.77791 8.034C8.7615 8.01679 8.74838 7.99958 8.73197 7.97892C8.71557 7.95826 8.70244 7.94105 8.68932 7.92039C8.68604 7.91351 8.68275 7.91007 8.67947 7.90318C8.66963 7.88597 8.6565 7.8722 8.64666 7.85498C8.64338 7.85154 8.6401 7.84466 8.63682 7.84121C8.62369 7.82056 8.61385 7.7999 8.60072 7.7758C8.59744 7.77236 8.59744 7.76548 8.59416 7.76203C8.58432 7.74482 8.57775 7.72761 8.56791 7.70695L8.55807 7.6863C8.54822 7.6622 8.53838 7.64154 8.53182 7.61744C8.52197 7.59335 8.51541 7.56925 8.50885 7.54515C8.50557 7.53826 8.50557 7.53138 8.50228 7.52449C8.49572 7.50384 8.49244 7.48662 8.48916 7.46597C8.48916 7.45908 8.48588 7.45564 8.48588 7.44875C8.47932 7.42466 8.47603 7.39711 8.47275 7.37302C8.47275 7.36613 8.47275 7.36269 8.46947 7.3558C8.46619 7.33515 8.46619 7.31449 8.46291 7.29384L8.46291 7.27318C8.46291 7.24564 8.45963 7.22154 8.45963 7.194C8.45963 7.16646 8.45963 7.14236 8.46291 7.11482L8.46291 7.09417C8.46291 7.07351 8.46619 7.05285 8.46947 7.0322C8.46947 7.02531 8.46947 7.02187 8.47275 7.01499C8.47603 6.99089 8.47932 6.96335 8.48588 6.93925C8.48588 6.93236 8.48916 6.92892 8.48916 6.92203C8.49244 6.90138 8.499 6.88072 8.50228 6.86351C8.50557 6.85662 8.50557 6.84974 8.50885 6.84285C8.51541 6.81876 8.52197 6.79466 8.53182 6.77056C8.53838 6.74646 8.54822 6.7258 8.55807 6.70171L8.56791 6.68105C8.57447 6.66384 8.58432 6.64318 8.59416 6.62597C8.59744 6.62253 8.59744 6.61564 8.60072 6.6122C8.61057 6.59154 8.62369 6.56744 8.63682 6.54679C8.6401 6.54334 8.64338 6.53646 8.64666 6.53302C8.6565 6.51581 8.66635 6.49859 8.67947 6.48482C8.68275 6.47793 8.68604 6.47449 8.68932 6.46761C8.70244 6.44695 8.71885 6.4263 8.73197 6.40908C8.7451 6.39187 8.7615 6.37121 8.77791 6.354L8.79104 6.34023L8.83041 6.29892L8.84025 6.28859C8.85666 6.27138 8.87635 6.25417 8.89275 6.2404C8.89603 6.23695 8.9026 6.23351 8.90588 6.23007C8.919 6.2163 8.93541 6.20597 8.95182 6.19564C8.95838 6.1922 8.96166 6.18875 8.96822 6.18531L9.02728 6.144L9.03057 6.144C9.21416 6.02922 9.42388 5.96856 9.6376 5.96843C9.83447 5.96843 10.0215 6.02007 10.1856 6.10958C10.2053 6.1199 10.2249 6.13367 10.2446 6.144L10.2479 6.144L10.307 6.18531C10.3135 6.18875 10.3168 6.1922 10.3234 6.19564C10.3398 6.20597 10.3529 6.21974 10.3693 6.23007C10.3726 6.23351 10.3792 6.23695 10.3824 6.2404C10.4021 6.25761 10.4185 6.27138 10.4349 6.28859L10.4448 6.29892L10.4842 6.34023L10.4973 6.354C10.5137 6.37121 10.5268 6.38843 10.5432 6.40908C10.5596 6.42974 10.5728 6.44695 10.5859 6.46761C10.5892 6.47449 10.5924 6.47793 10.5957 6.48482C10.6056 6.50203 10.6187 6.5158 10.6285 6.53302C10.6318 6.53646 10.6351 6.54334 10.6384 6.54679C10.6515 6.56744 10.6613 6.5881 10.6745 6.6122C10.6778 6.61564 10.6778 6.62253 10.681 6.62597C10.6909 6.64318 10.6974 6.66039 10.7073 6.68105L10.7171 6.70171C10.727 6.7258 10.7368 6.74646 10.7434 6.77056C10.7532 6.79466 10.7598 6.81876 10.7663 6.84285C10.7696 6.84974 10.7696 6.85662 10.7729 6.86351C10.7795 6.88416 10.7828 6.90138 10.786 6.92203C10.786 6.92892 10.7893 6.93236 10.7893 6.93925C10.7959 6.96335 10.7992 6.99089 10.8024 7.01499C10.8024 7.02187 10.8024 7.02531 10.8057 7.0322C10.809 7.05285 10.809 7.07351 10.8123 7.09417L10.8123 7.11482C10.8123 7.14236 10.8156 7.16646 10.8156 7.194C10.8156 7.22154 10.8156 7.24564 10.8123 7.27318L10.8123 7.29384C10.8123 7.31449 10.809 7.33515 10.8057 7.3558C10.8057 7.36269 10.8057 7.36613 10.8024 7.37302C10.7992 7.39711 10.7959 7.42466 10.7893 7.44875C10.7893 7.45564 10.786 7.45908 10.786 7.46597C10.7828 7.48662 10.7762 7.50728 10.7729 7.52449C10.7696 7.53138 10.7696 7.53826 10.7663 7.54515C10.7598 7.56925 10.7532 7.59335 10.7434 7.61744C10.7368 7.64154 10.727 7.6622 10.7171 7.6863L10.7073 7.70695C10.7007 7.72416 10.6909 7.74482 10.681 7.76203C10.6778 7.76548 10.6778 7.77236 10.6745 7.7758C10.6646 7.79646 10.6515 7.82056 10.6384 7.84121C10.6351 7.84466 10.6318 7.85154 10.6285 7.85498C10.6187 7.8722 10.6088 7.88941 10.5957 7.90318C10.5924 7.91007 10.5892 7.91351 10.5859 7.92039C10.5728 7.94105 10.5563 7.96171 10.5432 7.97892C10.5301 7.99613 10.5137 8.01679 10.4973 8.034L10.4842 8.04777L10.4448 8.08908L10.4349 8.09941C10.4185 8.11662 10.3988 8.13384 10.3824 8.14761C10.3792 8.15105 10.3726 8.15449 10.3693 8.15794C10.3562 8.17171 10.3398 8.18204 10.3234 8.19236C10.3168 8.19581 10.3135 8.19925 10.307 8.20269L10.2479 8.244L10.2446 8.244C10.2249 8.25777 10.2053 8.2681 10.1856 8.27843C10.0215 8.36794 9.83447 8.41958 9.6376 8.41958C9.44072 8.41958 9.25369 8.36794 9.08963 8.27843Z" fill="white"/>
</svg>
