<svg viewBox="0 0 24 24" fill="none" xmlns="http://www.w3.org/2000/svg">
<path fill-rule="evenodd" clip-rule="evenodd" d="M18 9H10C9.44772 9 9 9.44772 9 10V18C9 18.5523 9.44772 19 10 19H18C18.5523 19 19 18.5523 19 18V10C19 9.44772 18.5523 9 18 9ZM10 7C8.34315 7 7 8.34315 7 10V18C7 19.6569 8.34315 21 10 21H18C19.6569 21 21 19.6569 21 18V10C21 8.34315 19.6569 7 18 7H10Z" fill="currentColor"/>
<path fill-rule="evenodd" clip-rule="evenodd" d="M2 5C2 3.34315 3.34315 2 5 2H13C14.6569 2 16 3.34315 16 5V5.76923H14V5C14 4.44772 13.5523 4 13 4H5C4.44772 4 4 4.44772 4 5V13C4 13.5523 4.44772 14 5 14H6.23077V16H5C3.34315 16 2 14.6569 2 13V5Z" fill="currentColor"/>
</svg>
