<svg width="24" height="24" viewBox="0 0 24 24" fill="none"
    xmlns="http://www.w3.org/2000/svg">
    <path d="M12 1.5C6.20156 1.5 1.5 6.20156 1.5 12C1.5 17.7984 6.20156 22.5 12 22.5C17.7984 22.5 22.5 17.7984 22.5 12C22.5 6.20156 17.7984 1.5 12 1.5ZM12.5227 17.0906L12.5273 17.8336C12.5273 17.9367 12.443 18.0234 12.3398 18.0234H11.6742C11.5711 18.0234 11.4867 17.9391 11.4867 17.8359V17.1C9.40547 16.9453 8.42578 15.7594 8.32031 14.4703C8.31094 14.3602 8.39766 14.2664 8.50781 14.2664H9.59063C9.68203 14.2664 9.76172 14.332 9.77578 14.4211C9.89531 15.1641 10.4742 15.7195 11.5125 15.8578V12.5133L10.9336 12.3656C9.70781 12.0727 8.54063 11.3086 8.54063 9.72422C8.54063 8.01563 9.83906 7.09688 11.4984 6.93516V6.16172C11.4984 6.05859 11.5828 5.97422 11.6859 5.97422H12.3445C12.4477 5.97422 12.532 6.05859 12.532 6.16172V6.92813C14.1375 7.08984 15.3422 8.02734 15.4828 9.4875C15.4945 9.59766 15.4078 9.69375 15.2953 9.69375H14.243C14.1492 9.69375 14.0695 9.62344 14.0578 9.53203C13.9641 8.84766 13.4156 8.28984 12.5227 8.16797V11.3156L13.118 11.4539C14.6367 11.8289 15.6703 12.5555 15.6703 14.182C15.6703 15.9469 14.3578 16.9313 12.5227 17.0906ZM9.99844 9.61641C9.99844 10.2117 10.3664 10.6734 11.1586 10.9594C11.2688 11.0039 11.3789 11.0391 11.5102 11.0766V8.17031C10.6453 8.28047 9.99844 8.76563 9.99844 9.61641ZM12.7289 12.7852C12.6633 12.7711 12.5977 12.7547 12.5227 12.7336V15.8672C13.5211 15.7781 14.2102 15.2297 14.2102 14.3109C14.2102 13.5914 13.8375 13.1227 12.7289 12.7852Z" fill="currentColor"/>
</svg>
