<svg width="22" height="22" viewBox="0 0 22 22" fill="none" xmlns="http://www.w3.org/2000/svg">
<path d="M11 0.5C5.20156 0.5 0.5 5.20156 0.5 11C0.5 16.7984 5.20156 21.5 11 21.5C16.7984 21.5 21.5 16.7984 21.5 11C21.5 5.20156 16.7984 0.5 11 0.5ZM11.5227 16.0906L11.5273 16.8336C11.5273 16.9367 11.443 17.0234 11.3398 17.0234H10.6742C10.5711 17.0234 10.4867 16.9391 10.4867 16.8359V16.1C8.40547 15.9453 7.42578 14.7594 7.32031 13.4703C7.31094 13.3602 7.39766 13.2664 7.50781 13.2664H8.59063C8.68203 13.2664 8.76172 13.332 8.77578 13.4211C8.89531 14.1641 9.47422 14.7195 10.5125 14.8578V11.5133L9.93359 11.3656C8.70781 11.0727 7.54063 10.3086 7.54063 8.72422C7.54063 7.01563 8.83906 6.09688 10.4984 5.93516V5.16172C10.4984 5.05859 10.5828 4.97422 10.6859 4.97422H11.3445C11.4477 4.97422 11.532 5.05859 11.532 5.16172V5.92813C13.1375 6.08984 14.3422 7.02734 14.4828 8.4875C14.4945 8.59766 14.4078 8.69375 14.2953 8.69375H13.243C13.1492 8.69375 13.0695 8.62344 13.0578 8.53203C12.9641 7.84766 12.4156 7.28984 11.5227 7.16797V10.3156L12.118 10.4539C13.6367 10.8289 14.6703 11.5555 14.6703 13.182C14.6703 14.9469 13.3578 15.9313 11.5227 16.0906ZM8.99844 8.61641C8.99844 9.21172 9.36641 9.67344 10.1586 9.95938C10.2688 10.0039 10.3789 10.0391 10.5102 10.0766V7.17031C9.64531 7.28047 8.99844 7.76563 8.99844 8.61641ZM11.7289 11.7852C11.6633 11.7711 11.5977 11.7547 11.5227 11.7336V14.8672C12.5211 14.7781 13.2102 14.2297 13.2102 13.3109C13.2102 12.5914 12.8375 12.1227 11.7289 11.7852Z" fill="#8C8C8C"/>
</svg>
