<svg width="24" height="24" viewBox="0 0 24 24" fill="none" xmlns="http://www.w3.org/2000/svg">
<path d="M12.6449 5.59659H11.3565C11.2386 5.59659 11.1422 5.69302 11.1422 5.81088V13.185C11.1422 13.2546 11.1743 13.3189 11.2306 13.3591L15.6583 16.5921C15.7547 16.6618 15.8886 16.643 15.9583 16.5466L16.7243 15.5019C16.7967 15.4028 16.7752 15.2689 16.6788 15.2019L12.8592 12.4403V5.81088C12.8592 5.69302 12.7627 5.59659 12.6449 5.59659ZM18.5324 7.61088L22.7324 8.63677C22.8663 8.66891 22.9976 8.56713 22.9976 8.43052L23.019 4.10463C23.019 3.92516 22.8127 3.82338 22.6735 3.93588L18.452 7.2332C18.4201 7.25788 18.3958 7.29106 18.3819 7.32894C18.3681 7.36681 18.3651 7.40783 18.3735 7.44728C18.3819 7.48674 18.4013 7.52302 18.4294 7.55196C18.4575 7.5809 18.4932 7.60132 18.5324 7.61088ZM23.0243 15.6761L21.5056 15.1537C21.4526 15.1356 21.3947 15.1389 21.3441 15.1629C21.2936 15.1869 21.2544 15.2298 21.2351 15.2823C21.1842 15.4189 21.1306 15.5528 21.0743 15.6868C20.5976 16.8144 19.9145 17.8296 19.0413 18.7002C18.1778 19.5664 17.1544 20.2568 16.0279 20.7332C14.8609 21.2266 13.6065 21.4798 12.3395 21.4778C11.0592 21.4778 9.81898 21.2287 8.65113 20.7332C7.52462 20.2568 6.50125 19.5664 5.63773 18.7002C4.7672 17.8296 4.08416 16.8144 3.6047 15.6868C3.11403 14.5191 2.86264 13.2649 2.86541 11.9984C2.86541 10.718 3.11452 9.47516 3.61005 8.3073C4.08684 7.17963 4.76988 6.16445 5.64309 5.29391C6.50661 4.42771 7.52998 3.73728 8.65648 3.26088C9.81898 2.76534 11.0618 2.51623 12.3422 2.51623C13.6226 2.51623 14.8627 2.76534 16.0306 3.26088C17.1571 3.73728 18.1805 4.42771 19.044 5.29391C19.3172 5.5698 19.5743 5.85641 19.8101 6.15909L21.4118 4.90552C19.3038 2.21088 16.0226 0.477839 12.3368 0.480518C5.91898 0.483196 0.765411 5.6957 0.829697 12.1162C0.893982 18.4243 6.02345 23.5162 12.3422 23.5162C17.3109 23.5162 21.5431 20.3662 23.1556 15.9546C23.1958 15.8421 23.1368 15.7162 23.0243 15.6761Z" fill="#8C8C8C"/>
</svg>
