<svg width="24" height="24" viewBox="0 0 24 24" fill="none" xmlns="http://www.w3.org/2000/svg">
<path d="M12.6449 5.59657H11.3565C11.2386 5.59657 11.1422 5.693 11.1422 5.81086V13.185C11.1422 13.2546 11.1743 13.3189 11.2306 13.3591L15.6583 16.5921C15.7547 16.6618 15.8886 16.643 15.9583 16.5466L16.7243 15.5019C16.7967 15.4028 16.7752 15.2689 16.6788 15.2019L12.8592 12.4403V5.81086C12.8592 5.693 12.7627 5.59657 12.6449 5.59657ZM18.5324 7.61086L22.7324 8.63675C22.8663 8.6689 22.9976 8.56711 22.9976 8.4305L23.019 4.10461C23.019 3.92515 22.8127 3.82336 22.6735 3.93586L18.452 7.23318C18.4201 7.25786 18.3958 7.29105 18.3819 7.32892C18.3681 7.36679 18.3651 7.40781 18.3735 7.44727C18.3819 7.48672 18.4013 7.523 18.4294 7.55194C18.4575 7.58088 18.4932 7.60131 18.5324 7.61086V7.61086ZM23.0243 15.676L21.5056 15.1537C21.4526 15.1356 21.3947 15.1389 21.3441 15.1629C21.2936 15.1869 21.2544 15.2298 21.2351 15.2823C21.1842 15.4189 21.1306 15.5528 21.0743 15.6868C20.5976 16.8144 19.9145 17.8296 19.0413 18.7001C18.1778 19.5663 17.1544 20.2568 16.0279 20.7332C14.8609 21.2266 13.6065 21.4798 12.3395 21.4778C11.0592 21.4778 9.81898 21.2287 8.65113 20.7332C7.52463 20.2568 6.50125 19.5663 5.63773 18.7001C4.7672 17.8296 4.08416 16.8144 3.6047 15.6868C3.11403 14.5191 2.86264 13.2649 2.86541 11.9984C2.86541 10.718 3.11452 9.47515 3.61005 8.30729C4.08684 7.17961 4.76988 6.16443 5.64309 5.2939C6.50661 4.4277 7.52998 3.73726 8.65648 3.26086C9.81898 2.76532 11.0618 2.51622 12.3422 2.51622C13.6226 2.51622 14.8627 2.76532 16.0306 3.26086C17.1571 3.73726 18.1805 4.4277 19.044 5.2939C19.3172 5.56979 19.5743 5.8564 19.8101 6.15907L21.4118 4.9055C19.3038 2.21086 16.0226 0.477824 12.3368 0.480502C5.91898 0.483181 0.765411 5.69568 0.829697 12.1162C0.893982 18.4243 6.02345 23.5162 12.3422 23.5162C17.3109 23.5162 21.5431 20.3662 23.1556 15.9546C23.1958 15.8421 23.1368 15.7162 23.0243 15.676V15.676Z" fill="currentColor"/>
</svg>
