<svg width="24" height="24" viewBox="0 0 24 24" fill="none" xmlns="http://www.w3.org/2000/svg">
<path d="M21.6632 7.9313C21.1374 6.67628 20.3724 5.53556 19.4109 4.57271C18.4523 3.60818 17.3135 2.84132 16.0593 2.31568C14.7745 1.77458 13.3941 1.49721 12 1.50005H11.9531C10.5351 1.50708 9.16403 1.78833 7.87262 2.34146C6.62919 2.87249 5.50114 3.64071 4.55153 4.60318C3.59933 5.56387 2.8431 6.7006 2.32496 7.95005C1.78711 9.24934 1.51457 10.6431 1.5234 12.0493C1.53043 13.6758 1.91949 15.2907 2.64606 16.7344V20.2969C2.64606 20.8922 3.12887 21.3751 3.72184 21.3751H7.27965C8.73014 22.107 10.3308 22.4921 11.9554 22.5001H12.0047C13.4062 22.5001 14.7632 22.2282 16.0429 21.6961C17.2908 21.1768 18.4253 20.4189 19.3828 19.4649C20.3484 18.5063 21.1078 17.386 21.6398 16.1368C22.1906 14.843 22.4718 13.4672 22.4789 12.0469C22.4836 10.6196 22.207 9.23443 21.6632 7.9313ZM7.32184 13.1251C6.70309 13.1251 6.19918 12.6211 6.19918 12.0001C6.19918 11.379 6.70309 10.8751 7.32184 10.8751C7.94059 10.8751 8.44449 11.379 8.44449 12.0001C8.44449 12.6211 7.94293 13.1251 7.32184 13.1251ZM12 13.1251C11.3812 13.1251 10.8773 12.6211 10.8773 12.0001C10.8773 11.379 11.3812 10.8751 12 10.8751C12.6187 10.8751 13.1226 11.379 13.1226 12.0001C13.1226 12.6211 12.6187 13.1251 12 13.1251ZM16.6781 13.1251C16.0593 13.1251 15.5554 12.6211 15.5554 12.0001C15.5554 11.379 16.0593 10.8751 16.6781 10.8751C17.2968 10.8751 17.8007 11.379 17.8007 12.0001C17.8007 12.6211 17.2968 13.1251 16.6781 13.1251Z" fill="#8C8C8C"/>
</svg>
