<svg width="22" height="22" viewBox="0 0 22 22" fill="none" xmlns="http://www.w3.org/2000/svg">
<path d="M20.6632 6.9313C20.1374 5.67628 19.3724 4.53556 18.4109 3.57271C17.4523 2.60818 16.3135 1.84132 15.0593 1.31568C13.7745 0.774579 12.3941 0.497213 11 0.500052H10.9531C9.53512 0.507083 8.16403 0.788333 6.87262 1.34146C5.62919 1.87249 4.50114 2.64071 3.55153 3.60318C2.59933 4.56387 1.8431 5.7006 1.32496 6.95005C0.787108 8.24934 0.514575 9.64309 0.523401 11.0493C0.530432 12.6758 0.919495 14.2907 1.64606 15.7344V19.2969C1.64606 19.8922 2.12887 20.3751 2.72184 20.3751H6.27965C7.73014 21.107 9.33076 21.4921 10.9554 21.5001H11.0047C12.4062 21.5001 13.7632 21.2282 15.0429 20.6961C16.2908 20.1768 17.4253 19.4189 18.3828 18.4649C19.3484 17.5063 20.1078 16.386 20.6398 15.1368C21.1906 13.843 21.4718 12.4672 21.4789 11.0469C21.4836 9.61958 21.207 8.23443 20.6632 6.9313ZM6.32184 12.1251C5.70309 12.1251 5.19918 11.6211 5.19918 11.0001C5.19918 10.379 5.70309 9.87505 6.32184 9.87505C6.94059 9.87505 7.44449 10.379 7.44449 11.0001C7.44449 11.6211 6.94293 12.1251 6.32184 12.1251ZM11 12.1251C10.3812 12.1251 9.87731 11.6211 9.87731 11.0001C9.87731 10.379 10.3812 9.87505 11 9.87505C11.6187 9.87505 12.1226 10.379 12.1226 11.0001C12.1226 11.6211 11.6187 12.1251 11 12.1251ZM15.6781 12.1251C15.0593 12.1251 14.5554 11.6211 14.5554 11.0001C14.5554 10.379 15.0593 9.87505 15.6781 9.87505C16.2968 9.87505 16.8007 10.379 16.8007 11.0001C16.8007 11.6211 16.2968 12.1251 15.6781 12.1251Z" fill="#8C8C8C"/>
</svg>
