<svg viewBox="0 0 16 16" fill="none" xmlns="http://www.w3.org/2000/svg">
<path d="M9.33333 2.5V3.83333H11.7267L5.17333 10.3867L6.11333 11.3267L12.6667 4.77333V7.16667H14V2.5H9.33333Z" fill="white"/>
<path fill-rule="evenodd" clip-rule="evenodd" d="M4 14.5C2.89543 14.5 2 13.6046 2 12.5L2 4.5C2 3.39543 2.89543 2.5 4 2.5L7.84615 2.5L7.84615 3.83333L4 3.83333C3.63181 3.83333 3.33333 4.13181 3.33333 4.5L3.33333 12.5C3.33333 12.8682 3.63181 13.1667 4 13.1667L12 13.1667C12.3682 13.1667 12.6667 12.8682 12.6667 12.5L12.6667 8.34615L14 8.34615L14 12.5C14 13.6046 13.1046 14.5 12 14.5L4 14.5Z" fill="white"/>
</svg>
