<svg width="20" height="20" viewBox="0 0 20 20" fill="none" xmlns="http://www.w3.org/2000/svg">
<g clip-path="url(#clip0_84_11)">
<path d="M19.214 12.5412L17.752 11.2912C17.8212 10.8671 17.8569 10.4341 17.8569 10.001C17.8569 9.56799 17.8212 9.13495 17.752 8.71085L19.214 7.46085C19.3243 7.36644 19.4033 7.2407 19.4403 7.10035C19.4774 6.96 19.4709 6.81169 19.4216 6.67513L19.4015 6.6171C18.999 5.49215 18.3963 4.44932 17.6225 3.53897L17.5823 3.4921C17.4885 3.38172 17.3634 3.30238 17.2235 3.26452C17.0836 3.22667 16.9356 3.23208 16.7989 3.28004L14.9841 3.92513C14.3145 3.37602 13.5667 2.94299 12.7587 2.63942L12.4082 0.742096C12.3818 0.599333 12.3125 0.467994 12.2097 0.365529C12.1068 0.263063 11.9752 0.194321 11.8323 0.168435L11.7721 0.157275C10.6091 -0.0525469 9.38592 -0.0525469 8.22297 0.157275L8.16271 0.168435C8.01984 0.194321 7.88824 0.263063 7.78537 0.365529C7.68251 0.467994 7.61325 0.599333 7.58681 0.742096L7.23414 2.64835C6.43255 2.95198 5.68607 3.38479 5.02431 3.9296L3.19619 3.28004C3.05951 3.2317 2.91135 3.22609 2.7714 3.26397C2.63146 3.30185 2.50635 3.38141 2.41271 3.4921L2.37253 3.53897C1.59964 4.44996 0.997028 5.49263 0.59351 6.6171L0.573421 6.67513C0.472975 6.95415 0.555564 7.26665 0.78101 7.46085L2.26092 8.72424C2.19172 9.14388 2.15824 9.57245 2.15824 9.99879C2.15824 10.4274 2.19172 10.8559 2.26092 11.2733L0.78101 12.5367C0.670733 12.6311 0.591806 12.7569 0.554725 12.8972C0.517643 13.0376 0.524164 13.1859 0.573421 13.3225L0.59351 13.3805C0.997528 14.5055 1.59574 15.5434 2.37253 16.4586L2.41271 16.5055C2.50658 16.6159 2.63169 16.6952 2.77155 16.7331C2.91141 16.7709 3.05946 16.7655 3.19619 16.7175L5.02431 16.068C5.68949 16.6149 6.4328 17.0479 7.23414 17.3492L7.58681 19.2555C7.61325 19.3983 7.68251 19.5296 7.78537 19.6321C7.88824 19.7345 8.01984 19.8033 8.16271 19.8292L8.22297 19.8403C9.39661 20.0513 10.5984 20.0513 11.7721 19.8403L11.8323 19.8292C11.9752 19.8033 12.1068 19.7345 12.2097 19.6321C12.3125 19.5296 12.3818 19.3983 12.4082 19.2555L12.7587 17.3582C13.5664 17.0554 14.3184 16.6209 14.9841 16.0725L16.7989 16.7175C16.9356 16.7659 17.0837 16.7715 17.2237 16.7336C17.3636 16.6957 17.4887 16.6162 17.5823 16.5055L17.6225 16.4586C18.3993 15.5412 18.9975 14.5055 19.4015 13.3805L19.4216 13.3225C19.5221 13.0479 19.4395 12.7354 19.214 12.5412ZM16.1672 8.97424C16.223 9.31129 16.252 9.65727 16.252 10.0033C16.252 10.3492 16.223 10.6952 16.1672 11.0323L16.0198 11.9274L17.6873 13.3537C17.4345 13.936 17.1154 14.4873 16.7364 14.9966L14.6649 14.2622L13.964 14.8381C13.4306 15.2756 12.8368 15.6193 12.194 15.8604L11.3435 16.1796L10.944 18.3448C10.3135 18.4162 9.67706 18.4162 9.04663 18.3448L8.64708 16.1751L7.80333 15.8515C7.16717 15.6104 6.57565 15.2667 6.04664 14.8314L5.34574 14.2533L3.26092 14.9943C2.88146 14.4832 2.56449 13.9318 2.31003 13.3515L3.9953 11.9117L3.85021 11.0189C3.79664 10.6863 3.76762 10.3425 3.76762 10.0033C3.76762 9.66174 3.7944 9.32022 3.85021 8.98763L3.9953 8.09477L2.31003 6.65504C2.56226 6.07245 2.88146 5.52335 3.26092 5.01219L5.34574 5.75326L6.04664 5.17513C6.57565 4.73986 7.16717 4.39611 7.80333 4.15504L8.64931 3.83585L9.04887 1.6662C9.6761 1.59477 10.3167 1.59477 10.9462 1.6662L11.3457 3.83138L12.1962 4.15058C12.8368 4.39165 13.4328 4.7354 13.9663 5.1729L14.6672 5.74879L16.7386 5.01442C17.1181 5.52558 17.435 6.07692 17.6895 6.65727L16.0221 8.08361L16.1672 8.97424ZM9.99976 5.85147C7.83012 5.85147 6.07119 7.6104 6.07119 9.78004C6.07119 11.9497 7.83012 13.7086 9.99976 13.7086C12.1694 13.7086 13.9283 11.9497 13.9283 9.78004C13.9283 7.6104 12.1694 5.85147 9.99976 5.85147ZM11.7676 11.5479C11.5357 11.7804 11.2602 11.9648 10.9568 12.0905C10.6534 12.2161 10.3281 12.2806 9.99976 12.28C9.33235 12.28 8.70512 12.0189 8.2319 11.5479C7.99937 11.316 7.81497 11.0405 7.68932 10.7371C7.56367 10.4337 7.49925 10.1084 7.49976 9.78004C7.49976 9.11263 7.76092 8.4854 8.2319 8.01219C8.70512 7.53897 9.33235 7.28004 9.99976 7.28004C10.6672 7.28004 11.2944 7.53897 11.7676 8.01219C12.0002 8.24406 12.1846 8.51962 12.3102 8.82301C12.4359 9.12641 12.5003 9.45166 12.4998 9.78004C12.4998 10.4475 12.2386 11.0747 11.7676 11.5479Z" fill="currentColor"/>
</g>
<defs>
<clipPath id="clip0_84_11">
<rect width="20" height="20" fill="white"/>
</clipPath>
</defs>
</svg>
