<svg width="20" height="20" viewBox="0 0 20 20" fill="none" xmlns="http://www.w3.org/2000/svg">
<path d="M19.2141 12.5412L17.752 11.2912C17.8212 10.8671 17.8569 10.434 17.8569 10.001C17.8569 9.56796 17.8212 9.13492 17.752 8.71082L19.2141 7.46082C19.3243 7.36641 19.4033 7.24067 19.4403 7.10032C19.4774 6.95997 19.4709 6.81166 19.4216 6.6751L19.4016 6.61706C18.9991 5.49212 18.3963 4.44929 17.6225 3.53894L17.5824 3.49207C17.4885 3.38169 17.3634 3.30235 17.2235 3.26449C17.0837 3.22664 16.9356 3.23205 16.7989 3.28001L14.9841 3.9251C14.3145 3.37599 13.5667 2.94296 12.7587 2.63939L12.4083 0.742065C12.3818 0.599302 12.3126 0.467964 12.2097 0.365498C12.1068 0.263032 11.9752 0.19429 11.8324 0.168405L11.7721 0.157244C10.6091 -0.0525774 9.38593 -0.0525774 8.22298 0.157244L8.16271 0.168405C8.01985 0.19429 7.88824 0.263032 7.78538 0.365498C7.68251 0.467964 7.61326 0.599302 7.58682 0.742065L7.23414 2.64832C6.43256 2.95195 5.68608 3.38476 5.02432 3.92957L3.1962 3.28001C3.05951 3.23167 2.91135 3.22606 2.77141 3.26394C2.63146 3.30182 2.50636 3.38138 2.41271 3.49207L2.37254 3.53894C1.59965 4.44993 0.997036 5.49259 0.593518 6.61706L0.573429 6.6751C0.472982 6.95412 0.555572 7.26662 0.781018 7.46082L2.26093 8.72421C2.19173 9.14385 2.15825 9.57242 2.15825 9.99876C2.15825 10.4273 2.19173 10.8559 2.26093 11.2733L0.781018 12.5367C0.670741 12.6311 0.591814 12.7569 0.554732 12.8972C0.517651 13.0376 0.524172 13.1859 0.573429 13.3224L0.593518 13.3805C0.997536 14.5055 1.59575 15.5434 2.37254 16.4586L2.41271 16.5055C2.50659 16.6158 2.6317 16.6952 2.77156 16.733C2.91142 16.7709 3.05947 16.7655 3.1962 16.7175L5.02432 16.068C5.6895 16.6148 6.4328 17.0479 7.23414 17.3492L7.58682 19.2555C7.61326 19.3982 7.68251 19.5296 7.78538 19.632C7.88824 19.7345 8.01985 19.8032 8.16271 19.8291L8.22298 19.8403C9.39662 20.0512 10.5985 20.0512 11.7721 19.8403L11.8324 19.8291C11.9752 19.8032 12.1068 19.7345 12.2097 19.632C12.3126 19.5296 12.3818 19.3982 12.4083 19.2555L12.7587 17.3581C13.5664 17.0554 14.3184 16.6209 14.9841 16.0724L16.7989 16.7175C16.9356 16.7659 17.0837 16.7715 17.2237 16.7336C17.3636 16.6957 17.4887 16.6161 17.5824 16.5055L17.6225 16.4586C18.3993 15.5412 18.9975 14.5055 19.4016 13.3805L19.4216 13.3224C19.5221 13.0479 19.4395 12.7354 19.2141 12.5412ZM16.1672 8.97421C16.223 9.31126 16.252 9.65724 16.252 10.0032C16.252 10.3492 16.223 10.6952 16.1672 11.0322L16.0199 11.9273L17.6873 13.3537C17.4345 13.936 17.1154 14.4873 16.7364 14.9965L14.6649 14.2622L13.9641 14.838C13.4306 15.2755 12.8368 15.6193 12.194 15.8604L11.3435 16.1796L10.944 18.3447C10.3135 18.4162 9.67707 18.4162 9.04664 18.3447L8.64709 16.1751L7.80334 15.8514C7.16718 15.6104 6.57566 15.2666 6.04664 14.8314L5.34575 14.2532L3.26093 14.9943C2.88146 14.4831 2.5645 13.9318 2.31004 13.3514L3.9953 11.9117L3.85021 11.0189C3.79664 10.6863 3.76763 10.3425 3.76763 10.0032C3.76763 9.66171 3.79441 9.32019 3.85021 8.9876L3.9953 8.09474L2.31004 6.65501C2.56227 6.07242 2.88146 5.52332 3.26093 5.01215L5.34575 5.75323L6.04664 5.1751C6.57566 4.73983 7.16718 4.39608 7.80334 4.15501L8.64932 3.83582L9.04887 1.66617C9.67611 1.59474 10.3167 1.59474 10.9462 1.66617L11.3457 3.83135L12.1962 4.15055C12.8368 4.39162 13.4328 4.73537 13.9663 5.17287L14.6672 5.74876L16.7386 5.01439C17.1181 5.52555 17.435 6.07689 17.6895 6.65724L16.0221 8.08358L16.1672 8.97421ZM9.99977 5.85144C7.83013 5.85144 6.0712 7.61037 6.0712 9.78001C6.0712 11.9497 7.83013 13.7086 9.99977 13.7086C12.1694 13.7086 13.9283 11.9497 13.9283 9.78001C13.9283 7.61037 12.1694 5.85144 9.99977 5.85144ZM11.7676 11.5479C11.5358 11.7804 11.2602 11.9648 10.9568 12.0905C10.6534 12.2161 10.3282 12.2805 9.99977 12.28C9.33236 12.28 8.70512 12.0189 8.23191 11.5479C7.99937 11.316 7.81498 11.0404 7.68933 10.737C7.56368 10.4336 7.49926 10.1084 7.49977 9.78001C7.49977 9.1126 7.76093 8.48537 8.23191 8.01215C8.70512 7.53894 9.33236 7.28001 9.99977 7.28001C10.6672 7.28001 11.2944 7.53894 11.7676 8.01215C12.0002 8.24403 12.1846 8.51959 12.3102 8.82298C12.4359 9.12638 12.5003 9.45163 12.4998 9.78001C12.4998 10.4474 12.2386 11.0747 11.7676 11.5479Z" fill="#BFBFBF"/>
</svg>
