<svg width="46" height="46" viewBox="0 0 46 46" fill="none"
    xmlns="http://www.w3.org/2000/svg">
    <g clip-path="url(#clip0_62_254)">
        <path d="M21.0184 7.96268C21.5862 5.96755 24.4138 5.96756 24.9816 7.96268L26.8462 14.5142C27.1509 15.5847 28.2507 16.2197 29.3301 15.9484L35.9278 14.2901C37.9373 13.785 39.3514 16.2284 37.9125 17.7192L33.1672 22.635C32.3966 23.4334 32.3966 24.6986 33.1672 25.4969L37.9125 30.4128C39.3514 31.9035 37.9373 34.3469 35.9278 33.8419L29.3301 32.1836C28.2507 31.9122 27.1509 32.5473 26.8462 33.6177L24.9816 40.1692C24.4138 42.1644 21.5862 42.1643 21.0184 40.1692L19.1538 33.6177C18.8491 32.5473 17.7493 31.9122 16.6699 32.1836L10.0722 33.8419C8.06274 34.3469 6.64859 31.9035 8.08755 30.4127L12.8328 25.4969C13.6034 24.6986 13.6034 23.4334 12.8328 22.635L8.08754 17.7192C6.64858 16.2284 8.06274 13.785 10.0722 14.2901L16.6699 15.9484C17.7493 16.2197 18.8491 15.5846 19.1538 14.5142L21.0184 7.96268Z" fill="#00EC97"/>
        <ellipse cx="33.7549" cy="7.41567" rx="2.26761" ry="2.26772" fill="#00EC97"/>
    </g>
    <defs>
        <clipPath id="clip0_62_254">
            <rect width="46" height="46" fill="white"/>
        </clipPath>
    </defs>
</svg>
