<svg width="20" height="20" viewBox="0 0 20 20" fill="none" xmlns="http://www.w3.org/2000/svg">
<path d="M18.625 0.625H1.375C0.960156 0.625 0.625 0.960156 0.625 1.375V18.625C0.625 19.0398 0.960156 19.375 1.375 19.375H18.625C19.0398 19.375 19.375 19.0398 19.375 18.625V1.375C19.375 0.960156 19.0398 0.625 18.625 0.625ZM17.875 11.5H10.375V8.5H17.875V11.5ZM11.5938 10C11.5938 10.2486 11.6925 10.4871 11.8683 10.6629C12.0442 10.8387 12.2826 10.9375 12.5313 10.9375C12.7799 10.9375 13.0183 10.8387 13.1942 10.6629C13.37 10.4871 13.4688 10.2486 13.4688 10C13.4688 9.75136 13.37 9.5129 13.1942 9.33709C13.0183 9.16127 12.7799 9.0625 12.5313 9.0625C12.2826 9.0625 12.0442 9.16127 11.8683 9.33709C11.6925 9.5129 11.5938 9.75136 11.5938 10Z" fill="white"/>
</svg>
